<svg xmlns="http://www.w3.org/2000/svg" xmlns:xlink="http://www.w3.org/1999/xlink" version="1.1" x="0px" y="0px" viewBox="0 0 100 125" style="enable-background:new 0 0 100 100;" xml:space="preserve"><g><path d="M74.8,68.5h1.7c0.8,0,1.5-0.1,2-0.4c0.5-0.2,0.8-0.6,1.1-0.9c0.3-0.4,0.4-0.8,0.5-1.2   c0.1-0.5,0.1-0.9,0.1-1.2v-9c0-1.1,0.3-2,0.7-2.7c0.5-0.7,1.1-1.3,1.9-1.7c0.7-0.4,1.6-0.7,2.4-0.9c0.9-0.2,1.7-0.3,2.4-0.3v-0.1   c-0.7,0-1.5-0.1-2.4-0.2c-0.9-0.1-1.7-0.4-2.4-0.8c-0.7-0.4-1.4-1-1.9-1.8c-0.5-0.8-0.7-1.9-0.7-3.3v-8.5c0-0.4,0-0.8-0.1-1.2   c-0.1-0.5-0.2-0.9-0.5-1.2c-0.2-0.4-0.6-0.7-1.1-0.9c-0.5-0.3-1.1-0.4-2-0.4h-1.7V22h7.1c1,0,2,0.2,3,0.5c1,0.3,2,0.8,2.9,1.4   c0.9,0.6,1.6,1.5,2.2,2.5c0.6,1,0.8,2.2,0.8,3.6v11.2c0,0.9,0.2,1.6,0.6,2.2c0.4,0.5,0.9,0.9,1.4,1.2c0.6,0.3,1.1,0.4,1.7,0.5   c0.6,0.1,1.1,0.1,1.5,0.1v9.5c-0.4,0-0.9,0-1.5,0.1c-0.6,0.1-1.2,0.2-1.7,0.5c-0.6,0.2-1,0.6-1.4,1.1c-0.4,0.5-0.6,1.1-0.6,1.9V70   c0,1.4-0.3,2.6-0.8,3.6c-0.6,1-1.3,1.8-2.2,2.5c-0.9,0.6-1.8,1.1-2.9,1.4c-1,0.3-2,0.5-3,0.5h-7.1V68.5z"/><path d="M55.3,53.8h13v9.8c0,1.5-0.1,2.9-0.4,4.3c-0.3,1.4-0.7,2.7-1.3,3.8c-0.6,1.1-1.4,2.1-2.4,3   c-1,0.9-2.2,1.5-3.5,2c-1.1,0.4-2.2,0.6-3.1,0.7c-0.9,0.1-1.7,0.1-2.3,0.1V72c0.8,0,1.5-0.2,2.2-0.6c0.7-0.4,1.2-0.8,1.7-1.3   c0.5-0.5,0.9-1.2,1.2-1.8c0.3-0.7,0.5-1.4,0.5-2.1h-5.5V53.8z"/><rect x="55.3" y="33.8" width="13" height="12.3"/><rect x="31.7" y="33.8" width="13" height="12.3"/><rect x="31.7" y="53.8" width="13" height="12.3"/><path d="M25.2,31.5H23c-0.7,0-1.3,0.1-1.7,0.4c-0.4,0.2-0.7,0.6-0.9,0.9c-0.2,0.4-0.3,0.8-0.4,1.2   c-0.1,0.5-0.1,0.9-0.1,1.2v9c0,1.1-0.2,2-0.7,2.7c-0.5,0.7-1.1,1.3-1.9,1.7c-0.7,0.4-1.6,0.7-2.4,0.9c-0.9,0.2-1.7,0.3-2.4,0.3v0.1   c0.7,0,1.5,0.1,2.4,0.2c0.9,0.1,1.7,0.4,2.4,0.8c0.7,0.4,1.4,1,1.9,1.8c0.5,0.8,0.7,1.9,0.7,3.2v8.5c0,0.4,0,0.8,0.1,1.2   c0.1,0.5,0.2,0.9,0.5,1.2c0.2,0.4,0.6,0.7,1.1,0.9c0.5,0.2,1.1,0.4,2,0.4h1.7V78h-7.1c-1,0-2-0.2-3-0.5c-1-0.3-2-0.8-2.9-1.4   c-0.9-0.6-1.6-1.5-2.2-2.5c-0.6-1-0.8-2.2-0.8-3.6V58.8c0-0.9-0.2-1.6-0.6-2.1c-0.4-0.5-0.9-0.9-1.5-1.2C6.6,55.2,6,55,5.4,54.9   c-0.6-0.1-1.1-0.1-1.4-0.1v-9.5c0.4,0,0.8,0,1.4-0.1c0.6-0.1,1.2-0.2,1.7-0.5c0.6-0.3,1-0.6,1.5-1.1s0.6-1.1,0.6-1.9V30   c0-1.4,0.3-2.6,0.8-3.6c0.6-1,1.3-1.8,2.2-2.5c0.9-0.6,1.8-1.1,2.9-1.4c1-0.3,2-0.5,3-0.5h7.1V31.5z"/></g><text x="0" y="115" fill="#000000" font-size="5px" font-weight="bold" font-family="'Helvetica Neue', Helvetica, Arial-Unicode, Arial, Sans-serif">Created by Vijay Sekhar Sadineni</text><text x="0" y="120" fill="#000000" font-size="5px" font-weight="bold" font-family="'Helvetica Neue', Helvetica, Arial-Unicode, Arial, Sans-serif">from the Noun Project</text></svg>